<?xml version="1.0" encoding="UTF-8" standalone="no"?><!DOCTYPE svg PUBLIC "-//W3C//DTD SVG 1.1//EN" "http://www.w3.org/Graphics/SVG/1.1/DTD/svg11.dtd"><svg width="100%" height="100%" viewBox="0 0 6191 1674" version="1.1" xmlns="http://www.w3.org/2000/svg" xmlns:xlink="http://www.w3.org/1999/xlink" xml:space="preserve" xmlns:serif="http://www.serif.com/" style="fill-rule:evenodd;clip-rule:evenodd;stroke-linejoin:round;stroke-miterlimit:2;"><path d="M140.667,984.645c-31.925,11.97 -59.529,29.929 -82.804,53.87c-38.563,39.25 -57.863,87.788 -57.863,145.65c0,51.875 20.296,97.767 60.858,137.671c53.867,52.546 128.346,78.813 223.467,78.813c96.421,-0 182.888,-25.271 259.379,-75.817c89.779,-60.512 134.675,-130.021 134.675,-208.504c0,-40.558 -12.312,-84.125 -36.912,-130.688c-21.292,-39.233 -47.234,-81.804 -77.813,-127.691c-31.925,-47.888 -58.204,-90.784 -78.808,-128.696c-24.617,-47.213 -36.917,-93.104 -36.917,-137.671c0,-61.183 23.275,-124.029 69.834,-188.546c53.2,-74.479 126.354,-135.333 219.479,-182.562c69.158,-35.246 126.696,-52.875 172.587,-52.875c17.284,-0 32.25,4.658 44.888,13.966c15.962,11.971 23.941,27.609 23.941,46.888c0,49.879 -39.9,108.083 -119.708,174.583c-61.854,51.875 -133.029,92.121 -213.492,120.713c-43.895,15.308 -65.841,35.258 -65.841,59.854c-0,10.65 3.991,20.296 11.971,28.929c11.97,12.646 25.591,18.954 40.9,18.954c23.275,0 57.52,-11.3 102.754,-33.912c90.441,-45.892 169.596,-105.079 237.433,-177.579c71.829,-77.142 107.742,-148.975 107.742,-215.484c-0,-42.554 -16.629,-76.146 -49.879,-100.758c-27.28,-20.608 -60.53,-30.929 -99.763,-30.929c-60.525,-0 -123.375,14.312 -188.55,42.9c-78.483,35.258 -150.308,81.15 -215.483,137.671c-123.05,108.412 -184.559,224.804 -184.559,349.162c0,52.546 15.292,106.092 45.892,160.617c27.263,49.225 60.85,103.75 100.758,163.608c25.938,38.579 45.221,70.504 57.859,95.771c11.971,24.612 17.962,52.221 17.962,82.804c0,49.875 -20.625,91.125 -61.854,123.7c-65.846,51.221 -142.658,76.821 -230.45,76.821c-43.896,-0 -80.15,-9.979 -108.737,-29.933c-33.267,-23.942 -49.884,-57.188 -49.884,-99.759c0,-53.204 28.588,-90.112 85.796,-110.733c33.246,-11.304 49.883,-27.938 49.883,-49.883c0,-29.259 -17.958,-43.892 -53.875,-43.892c-14.637,-0 -32.916,4.333 -54.866,12.967" style="fill:#f2f2f2;fill-rule:nonzero;"/><path d="M1238.53,1311.86c-107.4,0 -161.1,-98.096 -161.1,-294.296l334.2,0c3.321,-341.841 -77.487,-512.775 -242.421,-512.775c-79.154,0 -140.837,41.742 -185.058,125.204c-44.237,83.471 -66.342,200.359 -66.342,350.659c0,154.304 25.271,272.691 75.821,355.15c50.538,82.475 121.709,123.704 213.488,123.704c67.837,-0 130.016,-26.592 186.554,-79.813l-0,-157.62c-45.079,59.854 -96.8,89.787 -155.142,89.787m-78.25,-667.404c61.15,-0 91.729,84.471 91.729,253.396l-176.575,-0c0,-168.925 28.28,-253.396 84.846,-253.396" style="fill:#f2f2f2;fill-rule:nonzero;"/><path d="M2122.43,1359.25c-22.292,12.316 -55.367,19.129 -99.262,20.45l-0,54.871l520.754,-0l-0,-54.871l-32.921,-0c-31.921,-0 -57.363,-2.992 -76.321,-8.975c-18.95,-5.988 -32.092,-16.459 -39.404,-31.425c-7.321,-14.967 -10.971,-35.742 -10.971,-62.35l0,-645.459l185.554,0l0,-68.837l-185.554,-0l0,-346.171c0,-51.875 8.138,-91.608 24.442,-119.212c16.287,-27.592 38.733,-41.405 67.337,-41.405c18.613,0 34.246,5.988 46.888,17.959c12.625,11.975 18.958,28.279 18.958,48.883c0,9.325 -0.175,16.463 -0.5,21.45c-0.342,4.988 -0.846,10.821 -1.5,17.458c0,26.609 9.808,51.375 29.433,74.321c19.609,22.946 44.392,34.421 74.321,34.421c31.925,0 58.688,-12.129 80.309,-36.412c21.604,-24.271 32.42,-51.705 32.42,-82.305c0,-27.262 -8.154,-52.375 -24.441,-75.32c-16.304,-22.946 -41.242,-41.4 -74.821,-55.367c-33.592,-13.967 -73.325,-20.95 -119.213,-20.95c-77.162,-0 -144.654,17.304 -202.516,51.875c-57.863,34.587 -102.259,83.971 -133.184,148.146c-30.925,64.187 -46.387,139.837 -46.387,226.958l-0,135.671l-141.663,-0l0,68.837l141.663,0l-0,660.421c-0,32.592 -11.146,55.042 -33.421,67.338m107.742,-1142.77c28.262,-57.187 70.658,-105.404 127.196,-144.65c-35.259,51.221 -61.355,103.921 -78.313,158.121c-16.958,54.212 -25.442,120.554 -25.442,199.021l0,855.954c0,68.508 -39.575,102.754 -118.712,102.754c35.242,-24.596 52.875,-58.858 52.875,-102.754l-0,-857.946c-0,-83.129 14.121,-153.292 42.396,-210.5m361.633,-135.175c6.642,8.325 19.283,31.771 37.913,70.333c13.291,25.938 32.25,38.909 56.862,38.909c5.988,-0 16.963,-2.65 32.921,-7.984c-17.3,35.263 -42.571,52.875 -75.817,52.875c-16.633,0 -29.775,-3.15 -39.404,-9.479c-9.65,-6.312 -16.467,-14.791 -20.454,-25.441c-3.992,-10.63 -6.654,-23.1 -7.983,-37.409c-1.338,-14.291 -2.663,-27.758 -3.988,-40.404c-1.342,-21.946 -10.646,-42.896 -27.933,-62.85c25.271,5.988 41.229,13.142 47.883,21.45" style="fill:#f2f2f2;fill-rule:nonzero;"/><path d="M3699.65,1293.9c-55.821,49.221 -108.646,85.792 -158.483,109.738c-49.85,23.942 -97.359,35.912 -142.534,35.912c-43.862,0 -83.408,-11.458 -118.621,-34.37c-35.229,-22.913 -65.454,-57.3 -90.704,-103.13c-21.262,-38.533 -37.054,-79.216 -47.341,-122.066c-10.3,-42.834 -15.45,-88.509 -15.45,-137l-0,-10.959l463.891,-80.808c-3.337,-19.983 -6.825,-38.625 -10.471,-55.942c-3.666,-17.304 -8.154,-33.295 -13.47,-47.95l112.733,-38.95l-19.954,-73.92l-116.721,38.954c-9.975,-23.975 -21.292,-45.779 -33.921,-65.421c-12.642,-19.642 -26.279,-36.458 -40.9,-50.458l93.775,-101.867l-55.867,-46.888l-98.762,97.817c-21.95,-13.312 -44.896,-23.308 -68.838,-29.962c-23.941,-6.655 -49.225,-9.992 -75.816,-9.992l17.954,-103.75l-70.829,-21.95l-26.938,130.687c-13.308,1.996 -28.6,4.992 -45.887,8.984c-17.304,3.987 -36.584,9.316 -57.863,15.958l-65.841,-126.7l-89.788,43.9l81.804,118.717c-21.946,12.637 -42.741,27.279 -62.35,43.891c-19.625,16.634 -37.75,35.263 -54.366,55.867l-94.775,-65.846l-45.888,75.825l96.763,57.859c-12.638,23.287 -22.942,49.879 -30.921,79.812c-7.979,29.925 -13.642,63.517 -16.963,100.754l-137.671,30.925l30.925,87.796l106.746,-26.937c2.65,35.258 8.309,69.675 16.963,103.254c8.633,33.587 20.604,66.341 35.912,98.262l-116.721,60.854l44.892,70.83l106.746,-67.838c20.608,29.929 44.396,56.713 71.329,80.313c26.938,23.6 56.692,44.391 89.283,62.345l-60.85,111.734l89.784,48.883l55.866,-119.712c37.913,12.625 74.15,22.104 108.742,28.433c34.571,6.312 67.167,9.479 97.767,9.479l-7.988,108.738l89.788,5.987l1.996,-117.721c33.916,-3.991 65.845,-11.441 95.77,-22.383c29.93,-10.942 58.192,-24.379 84.8,-40.296l75.817,93.608l69.833,-40.875l-74.82,-111.45c9.975,-7.95 21.604,-18.412 34.916,-31.345c13.296,-12.942 28.259,-27.705 44.892,-44.288l-51.375,-65.342Zm-666.908,-374.104c13.3,-40.562 38.566,-73.825 75.82,-99.766c37.238,-25.934 77.471,-38.905 120.709,-38.905c35.246,0 62.354,7.325 81.308,21.946c18.954,14.638 29.758,36.584 32.421,65.846l-310.258,50.879Z" style="fill:#f2f2f2;fill-rule:nonzero;"/><path d="M5123.74,581.747c-56.537,-88.537 -142.004,-132.821 -256.387,-132.821c-49.229,0 -95.442,15.634 -138.667,46.888c-33.921,24.612 -64.191,56.862 -90.787,96.771c-29.925,-41.905 -60.196,-73.825 -90.784,-95.775c-44.562,-31.925 -95.441,-47.884 -152.629,-47.884c-69.179,0 -130.362,27.934 -183.562,83.796c-29.929,31.271 -56.538,71.175 -79.809,119.717c-5.987,-33.25 -26.608,-72.829 -61.854,-118.717c-25.283,-33.25 -50.55,-60.854 -75.816,-82.8c-3.992,-3.992 -7.655,-5.987 -10.975,-5.987c-3.334,-0 -7.155,2.495 -11.471,7.483c-4.334,4.987 -9.15,10.458 -14.467,16.442c-5.329,5.987 -12.967,13.954 -22.946,23.912c-19.954,19.938 -35.262,33.888 -45.887,41.854c-3.992,3.321 -5.988,6.642 -5.988,9.959c0,4.662 2.65,8.654 7.979,11.958c37.913,21.262 63.505,38.546 76.821,51.829c35.242,35.213 52.871,81.058 52.871,137.517l0,589.958c0,11.288 -7.329,23.588 -21.946,36.867c-7.983,7.45 -19.958,17.929 -35.916,31.441c-7.325,7.434 -10.971,13.859 -10.971,19.25c-0,7.45 7.637,11.163 22.941,11.163c19.28,-1.329 36.417,-2.65 51.38,-3.992c14.962,-1.325 34.416,-1.996 58.358,-1.996c5.987,0 24.6,0.996 55.871,2.992c31.25,1.996 50.529,2.996 57.858,2.996c14.621,-0 21.946,-4.054 21.946,-12.158c-0,-5.409 -3.988,-12.175 -11.971,-20.28c-12.637,-10.133 -24.942,-20.283 -36.912,-30.412c-15.305,-12.613 -22.942,-24.567 -22.942,-35.854l-0,-611.596c15.292,-41.904 39.233,-78.142 71.825,-108.742c38.567,-36.571 79.808,-54.871 123.704,-54.871c64.504,0 117.05,36.588 157.621,109.738c37.242,67.842 55.871,150.317 55.871,247.408c-0,200.863 -29.275,361.809 -87.792,482.846c-0.671,1.996 -2.992,7.654 -6.979,16.958c-1.346,4.663 -1.004,8.325 0.996,10.975c1.991,3.992 8.308,5.988 18.954,5.988c6.637,-0 10.971,-1.329 12.967,-3.992c11.97,-11.971 32.579,-44.891 61.854,-98.762c35.912,-65.842 65.837,-133.009 89.783,-201.521c30.583,-87.117 45.892,-163.263 45.892,-228.454c-0,-52.529 -2.667,-102.084 -7.984,-148.642c-5.329,-46.542 -13.962,-86.121 -25.937,-118.717c23.271,-27.262 49.537,-47.387 78.812,-60.354c29.259,-12.966 60.184,-19.454 92.78,-19.454c79.137,0 137.325,35.538 174.583,106.621c31.254,60.467 46.883,145.171 46.883,254.108c0,51.159 -10.641,108.617 -31.921,172.384c-17.304,51.833 -42.241,108.304 -74.825,169.408c-24.608,46.517 -53.537,95.333 -86.791,146.479c-4.659,7.983 -6.984,13.95 -6.984,17.942c0,8.637 6.317,12.954 18.955,12.954l6.987,-0c1.996,-0 4.317,-0.25 6.983,-0.75c18.613,-2.496 33.575,-3.992 44.892,-4.488c11.3,-0.5 26.592,-0.75 45.892,-0.75c28.583,0 49.383,0.996 62.35,2.992c12.966,1.996 27.091,5.642 42.4,10.975c15.291,5.317 29.254,12.3 41.896,20.95c5.32,4.646 10.304,6.983 14.966,6.983c5.988,0 8.309,-5.658 6.984,-16.958c-1.996,-12.646 -3.492,-23.771 -4.488,-33.421c-1,-9.629 -1.5,-21.775 -1.5,-36.412c0,-5.988 0.829,-15.463 2.496,-28.429c1.65,-12.975 3.492,-26.096 5.483,-39.409c0.659,-6.641 -0.666,-11.3 -3.987,-13.966c-3.992,-2.65 -7.984,-1.996 -11.971,1.995c-11.321,9.321 -22.292,18.3 -32.921,26.934c-17.958,12.646 -36.258,20.125 -54.871,22.446c-18.629,2.341 -38.254,3.491 -58.858,3.491c-8.65,0 -15.463,-0.154 -20.45,-0.496c-4.988,-0.329 -8.479,-0.5 -10.475,-0.5c70.487,-79.904 126.696,-166.116 168.596,-258.662c44.55,-98.546 66.841,-191.417 66.841,-278.646c0,-91.875 -20.95,-170.779 -62.85,-236.7m961.7,-491.962c-65.845,-54.525 -153.308,-81.805 -262.375,-81.805c-94.445,0 -174.929,30.6 -241.425,91.78c-66.508,61.2 -99.758,138.341 -99.758,231.445c0,66.513 15.617,120.388 46.888,161.613c31.254,41.25 72.825,61.854 124.7,61.854c37.908,0 71.158,-11.629 99.762,-34.917c28.588,-23.27 44.55,-51.533 47.883,-84.795c0,-16.617 -1.666,-34.417 -4.987,-53.375c-3.338,-18.955 -7.483,-31.75 -12.467,-38.409c-4.987,-6.641 -9.483,-9.971 -13.471,-9.971c-5.329,0 -8.825,2.334 -10.475,6.98c-1.666,4.662 -3.833,11.145 -6.483,19.454c-2.667,8.321 -5.983,14.808 -9.975,19.454c-21.296,25.283 -45.892,37.908 -73.825,37.908c-34.587,0 -60.196,-13.296 -76.817,-39.904c-16.633,-26.592 -24.937,-63.846 -24.937,-111.733c-0,-54.529 20.946,-101.413 62.846,-140.663c44.55,-41.9 102.087,-62.85 172.587,-62.85c79.809,0 141.321,25.938 184.563,77.813c37.904,45.237 56.858,103.1 56.858,173.587c0,99.759 -23.612,185.554 -70.829,257.384c-20.621,31.266 -56.863,69.833 -108.738,115.72c-27.279,23.288 -49.879,43.9 -67.841,61.855c-31.921,31.266 -54.542,57.862 -67.834,79.808c-17.304,27.933 -30.275,54.867 -38.908,80.808c-10.65,31.267 -15.962,62.521 -15.962,93.775c-0,1.992 0.154,5.829 0.5,11.471c0.325,5.658 0.495,10.817 0.495,15.467c3.321,25.279 10.48,48.379 21.455,69.329c10.97,20.954 24.437,35.758 40.4,44.396c5.312,3.333 9.979,4.987 13.966,4.987c3.992,0 8.638,-1.654 13.967,-4.987c2.65,-1.325 6.983,-4.992 12.967,-10.975c9.308,-7.979 16.962,-14.292 22.945,-18.954c11.3,-8.634 18.955,-13.967 22.946,-15.963c3.321,-1.996 10.975,-5.987 22.946,-11.971c4.646,-2.65 6.983,-5.641 6.983,-8.975c0,-5.987 -4.333,-8.983 -12.97,-8.983c-6.655,-1.321 -13.467,-3.646 -20.45,-6.979c-6.984,-3.321 -14.138,-9.634 -21.446,-18.954c-10.65,-12.625 -17.959,-26.096 -21.95,-40.405c-3.992,-14.295 -5.984,-29.429 -5.984,-45.391c0,-34.575 11.63,-67.838 34.917,-99.763c13.296,-18.612 34.913,-40.558 64.842,-65.841c47.887,-41.234 95.771,-82.459 143.658,-123.709c55.867,-50.533 97.096,-98.416 123.704,-143.65c34.575,-58.516 51.875,-121.712 51.875,-189.546c0,-104.408 -34.916,-185.562 -104.746,-243.42m-241.425,1187.16c-21.945,-21.279 -48.229,-31.925 -78.812,-31.925c-31.925,0 -58.533,10.646 -79.808,31.925c-21.292,21.292 -31.925,47.883 -31.925,79.804c-0,31.271 10.804,57.367 32.425,78.317c21.604,20.946 48.037,31.425 79.308,31.425c31.254,-0 57.692,-10.479 79.308,-31.425c21.609,-20.95 32.425,-47.046 32.425,-78.317c0,-31.921 -10.975,-58.512 -32.921,-79.804" style="fill:#f2f2f2;fill-rule:nonzero;"/></svg>