<?xml version="1.0" encoding="UTF-8" standalone="no"?><!DOCTYPE svg PUBLIC "-//W3C//DTD SVG 1.1//EN" "http://www.w3.org/Graphics/SVG/1.1/DTD/svg11.dtd"><svg width="100%" height="100%" viewBox="0 0 3942 3942" version="1.1" xmlns="http://www.w3.org/2000/svg" xmlns:xlink="http://www.w3.org/1999/xlink" xml:space="preserve" xmlns:serif="http://www.serif.com/" style="fill-rule:evenodd;clip-rule:evenodd;stroke-linejoin:round;stroke-miterlimit:2;"><path d="M1321.22,2607.91c-6.708,2.517 -12.516,6.292 -17.408,11.325c-8.108,8.254 -12.167,18.458 -12.167,30.621c0,10.912 4.271,20.558 12.796,28.95c11.325,11.046 26.983,16.566 46.983,16.566c20.275,0 38.455,-5.308 54.538,-15.937c18.875,-12.725 28.317,-27.338 28.317,-43.838c-0,-8.529 -2.592,-17.691 -7.763,-27.479c-4.479,-8.25 -9.929,-17.2 -16.358,-26.85c-6.717,-10.066 -12.242,-19.087 -16.575,-27.054c-5.175,-9.929 -7.759,-19.575 -7.759,-28.946c0,-12.862 4.892,-26.079 14.68,-39.646c11.187,-15.654 26.566,-28.45 46.15,-38.383c14.541,-7.408 26.633,-11.117 36.287,-11.117c3.633,0 6.775,0.984 9.433,2.942c3.359,2.513 5.034,5.8 5.034,9.854c-0,10.488 -8.388,22.725 -25.167,36.704c-13.004,10.913 -27.971,19.371 -44.887,25.384c-9.23,3.221 -13.846,7.412 -13.846,12.587c-0,2.238 0.841,4.263 2.521,6.079c2.512,2.659 5.379,3.988 8.595,3.988c4.896,-0 12.096,-2.379 21.609,-7.133c19.012,-9.65 35.658,-22.092 49.916,-37.334c15.105,-16.221 22.655,-31.325 22.655,-45.308c-0,-8.95 -3.496,-16.008 -10.488,-21.183c-5.737,-4.334 -12.725,-6.505 -20.975,-6.505c-12.725,0 -25.937,3.009 -39.642,9.021c-16.5,7.413 -31.6,17.063 -45.308,28.946c-25.871,22.792 -38.8,47.263 -38.8,73.413c0,11.045 3.213,22.304 9.646,33.766c5.733,10.354 12.796,21.817 21.183,34.4c5.459,8.113 9.513,14.825 12.167,20.138c2.521,5.171 3.779,10.979 3.779,17.408c0,10.488 -4.337,19.158 -13.008,26.008c-13.842,10.771 -29.992,16.15 -48.45,16.15c-9.229,0 -16.85,-2.095 -22.863,-6.291c-6.996,-5.034 -10.487,-12.025 -10.487,-20.975c-0,-11.188 6.012,-18.946 18.037,-23.284c6.988,-2.375 10.488,-5.87 10.488,-10.483c-0,-6.154 -3.775,-9.229 -11.325,-9.229c-3.079,-0 -6.925,0.908 -11.538,2.725" style="fill:#f2f2f2;fill-rule:nonzero;"/><path d="M1552.05,2676.71c-22.579,-0 -33.871,-20.625 -33.871,-61.879l70.267,-0c0.696,-71.871 -16.292,-107.813 -50.971,-107.813c-16.642,0 -29.608,8.779 -38.908,26.329c-9.3,17.55 -13.95,42.125 -13.95,73.725c-0,32.442 5.316,57.334 15.946,74.671c10.62,17.338 25.587,26.008 44.883,26.008c14.267,0 27.337,-5.591 39.225,-16.779l-0,-33.141c-9.479,12.583 -20.354,18.879 -32.621,18.879m-16.45,-140.325c12.858,-0 19.288,17.762 19.288,53.275l-37.125,-0c-0,-35.513 5.941,-53.275 17.837,-53.275" style="fill:#f2f2f2;fill-rule:nonzero;"/><path d="M1737.89,2686.67c-4.687,2.588 -11.642,4.021 -20.871,4.3l0,11.538l109.492,-0l-0,-11.538l-6.925,0c-6.713,0 -12.058,-0.629 -16.046,-1.887c-3.983,-1.258 -6.746,-3.463 -8.283,-6.608c-1.542,-3.146 -2.309,-7.517 -2.309,-13.109l0,-135.708l39.013,-0l-0,-14.471l-39.013,0l0,-72.783c0,-10.909 1.713,-19.263 5.138,-25.067c3.429,-5.8 8.146,-8.704 14.158,-8.704c3.913,-0 7.2,1.258 9.859,3.779c2.658,2.513 3.987,5.942 3.987,10.275c0,1.958 -0.037,3.463 -0.104,4.513c-0.075,1.041 -0.179,2.27 -0.317,3.666c0,5.596 2.063,10.8 6.188,15.625c4.121,4.829 9.333,7.238 15.629,7.238c6.708,-0 12.337,-2.55 16.879,-7.654c4.546,-5.105 6.817,-10.875 6.817,-17.309c-0,-5.729 -1.713,-11.008 -5.134,-15.833c-3.429,-4.825 -8.675,-8.704 -15.737,-11.642c-7.058,-2.933 -15.413,-4.404 -25.063,-4.404c-16.22,0 -30.412,3.638 -42.579,10.904c-12.166,7.275 -21.496,17.659 -28,31.15c-6.5,13.496 -9.75,29.404 -9.75,47.721l0,28.525l-29.787,0l-0,14.471l29.787,-0l0,138.858c0,6.85 -2.346,11.571 -7.029,14.154m22.654,-240.266c5.938,-12.025 14.854,-22.159 26.738,-30.417c-7.413,10.771 -12.896,21.85 -16.463,33.25c-3.566,11.396 -5.35,25.346 -5.35,41.846l0,179.962c0,14.405 -8.321,21.605 -24.958,21.605c7.408,-5.175 11.117,-12.375 11.117,-21.605l-0,-180.383c-0,-17.479 2.97,-32.229 8.916,-44.258m76.034,-28.421c1.395,1.75 4.05,6.679 7.97,14.783c2.796,5.459 6.78,8.184 11.955,8.184c1.258,-0 3.562,-0.555 6.92,-1.68c-3.637,7.413 -8.95,11.117 -15.937,11.117c-3.5,0 -6.263,-0.658 -8.292,-1.992c-2.025,-1.329 -3.458,-3.112 -4.296,-5.35c-0.841,-2.233 -1.4,-4.858 -1.679,-7.862c-0.279,-3.008 -0.558,-5.838 -0.837,-8.496c-0.284,-4.617 -2.238,-9.021 -5.871,-13.212c5.308,1.254 8.667,2.762 10.067,4.508" style="fill:#f2f2f2;fill-rule:nonzero;"/><path d="M2069.5,2672.94c-11.733,10.346 -22.837,18.037 -33.317,23.071c-10.483,5.033 -20.47,7.554 -29.966,7.554c-9.225,-0 -17.538,-2.413 -24.946,-7.229c-7.404,-4.817 -13.763,-12.046 -19.071,-21.684c-4.467,-8.1 -7.787,-16.654 -9.954,-25.662c-2.163,-9.008 -3.246,-18.613 -3.246,-28.804l0,-2.309l97.533,-16.987c-0.7,-4.204 -1.433,-8.121 -2.2,-11.763c-0.775,-3.637 -1.716,-7 -2.833,-10.079l23.704,-8.191l-4.196,-15.538l-24.541,8.183c-2.1,-5.037 -4.479,-9.62 -7.134,-13.75c-2.654,-4.133 -5.525,-7.666 -8.595,-10.608l19.712,-21.421l-11.746,-9.858l-20.762,20.567c-4.617,-2.8 -9.442,-4.9 -14.475,-6.296c-5.034,-1.4 -10.346,-2.104 -15.938,-2.104l3.771,-21.817l-14.887,-4.613l-5.667,27.48c-2.796,0.416 -6.013,1.05 -9.646,1.887c-3.637,0.838 -7.696,1.963 -12.167,3.354l-13.841,-26.637l-18.879,9.229l17.195,24.958c-4.612,2.663 -8.983,5.738 -13.108,9.234c-4.125,3.495 -7.933,7.408 -11.429,11.741l-19.925,-13.841l-9.65,15.941l20.346,12.163c-2.659,4.9 -4.825,10.491 -6.504,16.779c-1.675,6.296 -2.867,13.354 -3.563,21.187l-28.946,6.505l6.5,18.458l22.446,-5.667c0.558,7.417 1.746,14.65 3.563,21.709c1.816,7.062 4.333,13.95 7.554,20.662l-24.542,12.792l9.438,14.896l22.445,-14.263c4.334,6.292 9.334,11.921 14.996,16.883c5.663,4.963 11.921,9.334 18.771,13.109l-12.792,23.496l18.875,10.275l11.746,-25.167c7.975,2.65 15.592,4.646 22.863,5.975c7.271,1.325 14.121,1.996 20.554,1.996l-1.675,22.858l18.875,1.263l0.421,-24.755c7.133,-0.837 13.841,-2.404 20.137,-4.708c6.292,-2.296 12.234,-5.121 17.825,-8.471l15.942,19.684l14.683,-8.596l-15.733,-23.434c2.1,-1.67 4.546,-3.866 7.342,-6.591c2.8,-2.717 5.945,-5.821 9.441,-9.309l-10.804,-13.737Zm-140.212,-78.658c2.795,-8.53 8.104,-15.521 15.937,-20.975c7.829,-5.455 16.288,-8.18 25.383,-8.18c7.409,0 13.105,1.542 17.092,4.613c3.983,3.079 6.254,7.692 6.817,13.846l-65.229,10.696Z" style="fill:#f2f2f2;fill-rule:nonzero;"/><path d="M2368.92,2523.2c-11.891,-18.616 -29.858,-27.925 -53.908,-27.925c-10.35,0 -20.067,3.284 -29.154,9.854c-7.129,5.175 -13.496,11.959 -19.088,20.346c-6.291,-8.808 -12.658,-15.521 -19.087,-20.133c-9.371,-6.713 -20.067,-10.067 -32.092,-10.067c-14.546,0 -27.408,5.871 -38.596,17.617c-6.287,6.575 -11.883,14.962 -16.779,25.167c-1.258,-6.988 -5.596,-15.309 -13.004,-24.959c-5.313,-6.991 -10.629,-12.791 -15.938,-17.408c-0.841,-0.842 -1.612,-1.258 -2.308,-1.258c-0.704,-0 -1.504,0.525 -2.412,1.575c-0.913,1.05 -1.925,2.195 -3.042,3.458c-1.121,1.254 -2.729,2.933 -4.825,5.025c-4.196,4.192 -7.413,7.125 -9.646,8.8c-0.842,0.696 -1.262,1.396 -1.262,2.096c-0,0.975 0.558,1.821 1.679,2.512c7.971,4.471 13.354,8.104 16.15,10.896c7.412,7.404 11.116,17.046 11.116,28.913l0,124.041c0,2.371 -1.541,4.959 -4.612,7.75c-1.679,1.567 -4.196,3.767 -7.55,6.613c-1.542,1.562 -2.308,2.912 -2.308,4.046c-0,1.566 1.608,2.345 4.825,2.345c4.054,-0.275 7.654,-0.558 10.8,-0.837c3.15,-0.279 7.237,-0.421 12.27,-0.421c1.259,0 5.171,0.208 11.746,0.629c6.575,0.417 10.625,0.629 12.163,0.629c3.079,0 4.616,-0.85 4.616,-2.554c0,-1.141 -0.837,-2.558 -2.516,-4.266c-2.654,-2.13 -5.242,-4.263 -7.759,-6.396c-3.216,-2.646 -4.825,-5.163 -4.825,-7.534l0,-128.591c3.213,-8.809 8.246,-16.429 15.1,-22.863c8.109,-7.687 16.78,-11.533 26.009,-11.533c13.562,-0 24.608,7.687 33.141,23.071c7.83,14.262 11.746,31.604 11.746,52.016c0,42.234 -6.154,76.071 -18.458,101.517c-0.138,0.421 -0.629,1.613 -1.467,3.571c-0.283,0.979 -0.212,1.75 0.209,2.304c0.42,0.842 1.75,1.258 3.987,1.258c1.396,0 2.308,-0.275 2.725,-0.837c2.517,-2.517 6.85,-9.442 13.004,-20.763c7.55,-13.85 13.846,-27.966 18.879,-42.37c6.43,-18.321 9.646,-34.33 9.646,-48.038c0,-11.042 -0.558,-21.458 -1.675,-31.25c-1.125,-9.783 -2.937,-18.104 -5.454,-24.962c4.892,-5.73 10.413,-9.959 16.571,-12.688c6.15,-2.725 12.654,-4.087 19.504,-4.087c16.642,-0 28.875,7.47 36.708,22.416c6.571,12.709 9.859,30.521 9.859,53.425c-0,10.759 -2.242,22.834 -6.713,36.242c-3.637,10.9 -8.883,22.775 -15.733,35.621c-5.175,9.779 -11.258,20.046 -18.246,30.8c-0.983,1.675 -1.471,2.929 -1.471,3.771c0,1.812 1.329,2.72 3.988,2.72l1.471,0c0.416,0 0.904,-0.05 1.462,-0.158c3.917,-0.525 7.063,-0.837 9.442,-0.942c2.375,-0.104 5.591,-0.158 9.646,-0.158c6.016,0 10.383,0.208 13.112,0.629c2.725,0.417 5.696,1.188 8.913,2.309c3.216,1.116 6.154,2.587 8.812,4.404c1.117,0.979 2.163,1.471 3.146,1.471c1.254,-0 1.742,-1.192 1.467,-3.571c-0.421,-2.654 -0.734,-4.996 -0.946,-7.021c-0.209,-2.029 -0.313,-4.583 -0.313,-7.658c0,-1.259 0.171,-3.25 0.525,-5.98c0.346,-2.725 0.734,-5.483 1.154,-8.283c0.138,-1.396 -0.145,-2.375 -0.841,-2.937c-0.838,-0.559 -1.679,-0.421 -2.517,0.416c-2.375,1.963 -4.687,3.85 -6.921,5.667c-3.775,2.658 -7.621,4.229 -11.537,4.721c-3.913,0.491 -8.038,0.729 -12.371,0.729c-1.821,-0 -3.254,-0.029 -4.304,-0.104c-1.05,-0.067 -1.779,-0.1 -2.2,-0.1c14.821,-16.804 26.637,-34.929 35.446,-54.388c9.366,-20.721 14.054,-40.241 14.054,-58.587c-0,-19.313 -4.404,-35.904 -13.213,-49.763m202.192,-103.437c-13.842,-11.463 -32.229,-17.2 -55.163,-17.2c-19.858,-0 -36.775,6.433 -50.758,19.3c-13.983,12.866 -20.975,29.083 -20.975,48.658c0,13.988 3.283,25.313 9.858,33.983c6.571,8.671 15.313,13.005 26.217,13.005c7.975,-0 14.963,-2.446 20.979,-7.346c6.009,-4.892 9.367,-10.834 10.067,-17.825c-0,-3.496 -0.35,-7.242 -1.05,-11.225c-0.7,-3.984 -1.571,-6.675 -2.621,-8.075c-1.05,-1.396 -1.996,-2.096 -2.833,-2.096c-1.117,-0 -1.854,0.491 -2.2,1.471c-0.35,0.979 -0.809,2.341 -1.363,4.087c-0.562,1.75 -1.258,3.113 -2.1,4.088c-4.475,5.32 -9.65,7.975 -15.521,7.975c-7.27,-0 -12.658,-2.796 -16.15,-8.392c-3.5,-5.592 -5.245,-13.425 -5.245,-23.492c-0,-11.466 4.404,-21.321 13.212,-29.575c9.367,-8.812 21.467,-13.212 36.288,-13.212c16.783,-0 29.712,5.45 38.808,16.358c7.967,9.513 11.954,21.679 11.954,36.496c0,20.975 -4.967,39.012 -14.892,54.112c-4.337,6.58 -11.954,14.688 -22.866,24.334c-5.734,4.896 -10.484,9.229 -14.259,13.004c-6.716,6.579 -11.466,12.167 -14.262,16.783c-3.638,5.871 -6.367,11.534 -8.183,16.988c-2.238,6.575 -3.355,13.146 -3.355,19.716c0,0.421 0.034,1.226 0.105,2.413c0.066,1.192 0.104,2.271 0.104,3.254c0.7,5.313 2.2,10.171 4.508,14.575c2.308,4.404 5.138,7.517 8.496,9.334c1.121,0.7 2.1,1.05 2.937,1.05c0.838,-0.001 1.817,-0.351 2.934,-1.05c0.558,-0.275 1.471,-1.05 2.729,-2.309c1.954,-1.675 3.567,-3.004 4.825,-3.983c2.375,-1.817 3.987,-2.938 4.825,-3.354c0.696,-0.421 2.308,-1.263 4.821,-2.521c0.975,-0.558 1.471,-1.183 1.471,-1.888c-0,-1.258 -0.913,-1.887 -2.73,-1.887c-1.4,-0.279 -2.829,-0.767 -4.3,-1.471c-1.462,-0.696 -2.97,-2.021 -4.508,-3.983c-2.237,-2.654 -3.775,-5.484 -4.612,-8.496c-0.838,-3.004 -1.259,-6.183 -1.259,-9.542c0,-7.271 2.446,-14.262 7.342,-20.975c2.796,-3.916 7.337,-8.529 13.633,-13.841c10.067,-8.667 20.134,-17.338 30.2,-26.013c11.746,-10.621 20.421,-20.692 26.009,-30.204c7.27,-12.3 10.912,-25.588 10.912,-39.85c0,-21.954 -7.342,-39.013 -22.029,-51.179m-50.754,249.6c-4.617,-4.471 -10.142,-6.709 -16.575,-6.709c-6.709,0 -12.304,2.238 -16.775,6.709c-4.479,4.479 -6.717,10.071 -6.717,16.779c0,6.579 2.271,12.062 6.817,16.471c4.546,4.4 10.104,6.608 16.675,6.608c6.571,0 12.129,-2.208 16.679,-6.608c4.542,-4.409 6.817,-9.892 6.817,-16.471c-0,-6.708 -2.309,-12.3 -6.921,-16.779" style="fill:#f2f2f2;fill-rule:nonzero;"/><path d="M2079.76,608.304l-217.692,0c-107.866,0 -195.308,-87.442 -195.308,-195.304l0,-217.696c0,-107.862 87.442,-195.304 195.308,-195.304l217.692,0c107.867,0 195.308,87.442 195.308,195.304l0,217.696c0,107.862 -87.441,195.304 -195.308,195.304" style="fill:#09919c;fill-rule:nonzero;"/><path d="M2746.52,846.8l-188.529,-108.846c-93.412,-53.934 -125.421,-173.379 -71.487,-266.796l108.846,-188.525c53.933,-93.417 173.379,-125.421 266.791,-71.488l188.529,108.846c93.413,53.934 125.421,173.379 71.488,266.792l-108.85,188.529c-53.929,93.413 -173.375,125.421 -266.788,71.488" style="fill:#05616c;fill-rule:nonzero;"/><path d="M2079.76,3941.61l-217.692,0c-107.866,0 -195.304,-87.442 -195.304,-195.304l0,-217.696c0,-107.862 87.438,-195.304 195.304,-195.304l217.692,-0c107.867,-0 195.308,87.442 195.308,195.304l0,217.696c0,107.862 -87.441,195.304 -195.308,195.304" style="fill:#a5a034;fill-rule:nonzero;"/><path d="M3203.53,1383.83l-108.845,-188.53c-53.93,-93.412 -21.925,-212.858 71.487,-266.791l188.529,-108.846c93.413,-53.933 212.859,-21.929 266.796,71.487l108.846,188.525c53.929,93.417 21.921,212.863 -71.492,266.796l-188.529,108.846c-93.412,53.933 -212.858,21.925 -266.792,-71.487" style="fill:#0b5c3e;fill-rule:nonzero;"/><path d="M3354.64,3117.81l-188.529,-108.846c-93.413,-53.933 -125.421,-173.379 -71.483,-266.792l108.845,-188.529c53.93,-93.412 173.38,-125.421 266.792,-71.487l188.529,108.845c93.413,53.934 125.421,173.38 71.484,266.792l-108.846,188.529c-53.929,93.413 -173.379,125.421 -266.792,71.488" style="fill:#4a7f3c;fill-rule:nonzero;"/><path d="M3050.43,3625.63l-188.529,108.846c-93.413,53.933 -212.859,21.929 -266.792,-71.487l-108.846,-188.525c-53.933,-93.417 -21.929,-212.863 71.488,-266.796l188.525,-108.846c93.416,-53.933 212.862,-21.925 266.791,71.487l108.846,188.53c53.938,93.412 21.929,212.858 -71.483,266.791" style="fill:#7a7720;fill-rule:nonzero;"/><path d="M3746.33,2274.97l-217.691,0c-107.867,0 -195.309,-87.442 -195.309,-195.304l0,-217.696c0,-107.862 87.442,-195.304 195.309,-195.304l217.691,-0c107.867,-0 195.305,87.442 195.305,195.304l-0,217.696c-0,107.862 -87.438,195.304 -195.305,195.304" style="fill:#0a5a2a;fill-rule:nonzero;"/><path d="M1079.74,3734.45l-188.525,-108.846c-93.417,-53.933 -125.421,-173.379 -71.488,-266.791l108.846,-188.529c53.933,-93.413 173.379,-125.421 266.792,-71.488l188.529,108.846c93.412,53.933 125.421,173.379 71.487,266.792l-108.85,188.529c-53.929,93.412 -173.375,125.421 -266.791,71.487" style="fill:#ebb65e;fill-rule:nonzero;"/><path d="M316.035,3050.46l-108.845,-188.53c-53.93,-93.412 -21.925,-212.858 71.487,-266.791l188.529,-108.846c93.413,-53.933 212.859,-21.929 266.796,71.487l108.846,188.525c53.929,93.417 21.921,212.863 -71.492,266.796l-188.529,108.846c-93.412,53.933 -212.858,21.925 -266.792,-71.487" style="fill:#dc962d;fill-rule:nonzero;"/><path d="M413,2279.11l-217.696,0c-107.862,0 -195.304,-87.442 -195.304,-195.304l0,-217.696c0,-107.862 87.442,-195.304 195.304,-195.304l217.696,-0c107.867,-0 195.304,87.442 195.304,195.304l0,217.696c0,107.862 -87.437,195.304 -195.304,195.304" style="fill:#c16915;fill-rule:nonzero;"/><path d="M846.948,1199.43l-108.846,188.529c-53.929,93.413 -173.379,125.417 -266.792,71.488l-188.529,-108.85c-93.413,-53.929 -125.421,-173.379 -71.488,-266.792l108.846,-188.529c53.934,-93.412 173.384,-125.417 266.796,-71.483l188.529,108.846c93.413,53.933 125.417,173.379 71.484,266.791" style="fill:#a03b16;fill-rule:nonzero;"/><path d="M1383.76,738.099l-188.529,108.846c-93.413,53.933 -212.863,21.929 -266.792,-71.488l-108.846,-188.525c-53.937,-93.417 -21.929,-212.862 71.484,-266.792l188.529,-108.85c93.412,-53.933 212.862,-21.925 266.792,71.488l108.845,188.529c53.938,93.413 21.93,212.858 -71.483,266.792" style="fill:#70160c;fill-rule:nonzero;"/><path d="M1833,2092.15c10.654,39.758 33.487,69.729 68.521,89.958c35.646,20.579 73.341,25.554 113.087,14.892c39.738,-10.654 69.904,-33.796 90.488,-69.45c20.225,-35.025 25.008,-72.409 14.362,-112.163c-10.646,-39.733 -33.791,-69.904 -69.441,-90.491c-35.034,-20.221 -72.413,-25 -112.167,-14.359c-39.746,10.663 -69.729,33.492 -89.958,68.517c-20.58,35.654 -25.546,73.35 -14.892,113.096m-841.904,-597.313c24.571,107.196 86.625,189.525 186.187,247.009c59,34.062 116.354,47.929 172.059,41.562c55.708,-6.346 96.329,-31.654 121.875,-75.9c15.254,-26.421 18.929,-54.412 11.004,-84c-7.921,-29.558 -25.4,-52.15 -52.442,-67.767c-15.358,-8.866 -35.754,-16.12 -61.175,-21.795c-43.258,-10.23 -70.729,-18.709 -82.408,-25.455c-30.721,-17.737 -50.254,-46.012 -58.575,-84.829c-8.329,-38.8 -2.729,-75.108 16.787,-108.916c17.384,-30.109 42.125,-50.242 74.213,-60.405c32.091,-10.15 61.954,-7.25 89.616,8.717c23.967,13.838 41.155,33.4 51.555,58.658c10.416,25.267 25.191,82.346 44.333,171.242c46.137,216.754 111.6,349.6 196.412,398.567c28.275,16.325 57.584,20.546 87.942,12.671c30.358,-7.871 53.871,-26.246 70.554,-55.142c23.771,-41.171 21.021,-82.513 -8.291,-124.017l-60.367,-82.791c-18.808,-25.609 -40.721,-116.096 -65.742,-271.492c-14.883,-96.271 -37.058,-170.325 -66.541,-222.183c-29.48,-51.838 -72.792,-94.263 -129.95,-127.263c-83.58,-48.254 -171.467,-57.821 -263.68,-28.708c-92.195,29.125 -164.566,89.175 -217.075,180.125c-62.1,107.55 -80.858,214.933 -56.291,322.112" style="fill:#f2f2f2;fill-rule:nonzero;"/><path d="M1954.44,1903.9c-40.813,5.342 -73.521,24.046 -98.175,56.113c-25.092,32.633 -34.975,69.341 -29.634,110.141c5.33,40.796 24.317,73.746 56.95,98.834c32.071,24.658 68.5,34.304 109.305,28.983c40.8,-5.333 73.745,-24.313 98.833,-56.946c24.65,-32.071 34.304,-68.5 28.979,-109.308c-5.354,-40.804 -24.037,-73.529 -56.108,-98.184c-32.634,-25.087 -69.354,-34.958 -110.15,-29.633m1097.97,-427.437c22.479,-29.246 30.829,-62.23 25.029,-98.921c-5.821,-36.696 -24.196,-66.929 -55.134,-90.717c-59.075,-45.408 -126.425,-39.892 -202.033,16.546l-603.275,454.621c-23.5,17.746 -40.646,33.666 -51.45,47.725c-17.308,22.508 -24.179,47.429 -20.587,74.804c3.562,27.367 16.333,49.483 38.275,66.35c43.883,33.737 114.433,19.962 211.704,-41.342l569.546,-358.358c43.466,-27.45 72.779,-51.008 87.925,-70.708" style="fill:#f2f2f2;fill-rule:nonzero;"/></svg>