<?xml version="1.0" encoding="UTF-8" standalone="no"?><!DOCTYPE svg PUBLIC "-//W3C//DTD SVG 1.1//EN" "http://www.w3.org/Graphics/SVG/1.1/DTD/svg11.dtd"><svg width="100%" height="100%" viewBox="0 0 401 401" version="1.1" xmlns="http://www.w3.org/2000/svg" xmlns:xlink="http://www.w3.org/1999/xlink" xml:space="preserve" xmlns:serif="http://www.serif.com/" style="fill-rule:evenodd;clip-rule:evenodd;stroke-linejoin:round;stroke-miterlimit:2;"><path d="M213.532,61.762l-26.842,0c-9.645,0 -17.462,-7.816 -17.462,-17.458l-0,-26.842c-0,-9.645 7.817,-17.462 17.462,-17.462l26.842,0c9.642,0 17.458,7.817 17.458,17.463l0,26.841c0,9.642 -7.816,17.458 -17.458,17.458" style="fill:#09919c;fill-rule:nonzero;"/><path d="M280.911,87.163l-23.246,-13.42c-8.35,-4.821 -11.213,-15.5 -6.392,-23.85l13.421,-23.246c4.821,-8.354 15.5,-11.213 23.85,-6.392l23.25,13.421c8.35,4.821 11.208,15.5 6.388,23.85l-13.421,23.246c-4.821,8.35 -15.5,11.212 -23.85,6.391" style="fill:#05616c;fill-rule:nonzero;"/><path d="M213.532,400.197l-26.842,-0c-9.641,-0 -17.462,-7.817 -17.462,-17.459l-0,-26.846c-0,-9.641 7.821,-17.458 17.462,-17.458l26.842,0c9.642,0 17.458,7.817 17.458,17.458l0,26.846c0,9.642 -7.816,17.459 -17.458,17.459" style="fill:#a5a034;fill-rule:nonzero;"/><path d="M326.445,142.555l-13.421,-23.246c-4.821,-8.35 -1.958,-19.029 6.392,-23.85l23.246,-13.421c8.35,-4.825 19.025,-1.962 23.85,6.388l13.42,23.246c4.821,8.354 1.959,19.029 -6.391,23.854l-23.246,13.421c-8.35,4.82 -19.029,1.958 -23.85,-6.392" style="fill:#0b5c3e;fill-rule:nonzero;"/><path d="M342.654,317.741l-23.246,-13.421c-8.35,-4.82 -11.212,-15.5 -6.391,-23.85l13.421,-23.25c4.82,-8.35 15.5,-11.208 23.854,-6.387l23.246,13.421c8.35,4.821 11.212,15.5 6.387,23.85l-13.421,23.246c-4.821,8.35 -15.5,11.212 -23.85,6.391" style="fill:#4a7f3c;fill-rule:nonzero;"/><path d="M311.768,366.93l-23.25,13.421c-8.346,4.821 -19.025,1.959 -23.846,-6.391l-13.42,-23.246c-4.825,-8.35 -1.963,-19.029 6.387,-23.85l23.246,-13.421c8.35,-4.821 19.029,-1.958 23.854,6.392l13.421,23.245c4.817,8.35 1.958,19.03 -6.392,23.85" style="fill:#7a7720;fill-rule:nonzero;"/><path d="M382.74,230.98l-26.842,0c-9.641,0 -17.458,-7.816 -17.458,-17.458l-0,-26.842c-0,-9.645 7.817,-17.462 17.458,-17.462l26.842,-0c9.642,-0 17.458,7.817 17.458,17.462l0,26.842c0,9.642 -7.816,17.458 -17.458,17.458" style="fill:#0a5a2a;fill-rule:nonzero;"/><path d="M111.681,380.348l-23.246,-13.421c-8.35,-4.821 -11.213,-15.5 -6.392,-23.85l13.421,-23.246c4.821,-8.35 15.5,-11.212 23.85,-6.391l23.25,13.42c8.35,4.821 11.213,15.5 6.388,23.85l-13.421,23.246c-4.821,8.35 -15.5,11.213 -23.85,6.392" style="fill:#ebb65e;fill-rule:nonzero;"/><path d="M33.275,311.77l-13.421,-23.246c-4.821,-8.35 -1.962,-19.029 6.392,-23.85l23.246,-13.421c8.35,-4.821 19.025,-1.963 23.85,6.392l13.42,23.245c4.821,8.35 1.959,19.03 -6.391,23.85l-23.246,13.421c-8.35,4.821 -19.029,1.959 -23.85,-6.391" style="fill:#dc962d;fill-rule:nonzero;"/><path d="M44.304,231.402l-26.842,-0c-9.641,-0 -17.462,-7.817 -17.462,-17.459l-0,-26.846c-0,-9.641 7.821,-17.458 17.462,-17.458l26.842,0c9.642,0 17.458,7.817 17.458,17.458l0,26.846c0,9.642 -7.816,17.459 -17.458,17.459" style="fill:#c16915;fill-rule:nonzero;"/><path d="M87.177,119.728l-13.421,23.246c-4.821,8.35 -15.5,11.212 -23.85,6.391l-23.246,-13.42c-8.35,-4.821 -11.212,-15.5 -6.391,-23.85l13.421,-23.246c4.82,-8.354 15.5,-11.213 23.85,-6.392l23.245,13.421c8.355,4.821 11.213,15.5 6.392,23.85" style="fill:#a03b16;fill-rule:nonzero;"/><path d="M142.548,73.756l-23.246,13.421c-8.35,4.821 -19.029,1.958 -23.85,-6.392l-13.42,-23.245c-4.821,-8.35 -1.963,-19.025 6.391,-23.85l23.246,-13.421c8.35,-4.821 19.029,-1.963 23.85,6.391l13.421,23.246c4.821,8.35 1.958,19.029 -6.392,23.85" style="fill:#70160c;fill-rule:nonzero;"/><path d="M186.284,212.55c1.079,4.037 3.396,7.079 6.959,9.133c3.616,2.088 7.441,2.592 11.479,1.513c4.033,-1.084 7.096,-3.434 9.187,-7.05c2.054,-3.554 2.538,-7.354 1.459,-11.392c-1.084,-4.033 -3.434,-7.096 -7.05,-9.183c-3.559,-2.054 -7.355,-2.542 -11.384,-1.463c-4.041,1.084 -7.087,3.404 -9.141,6.959c-2.088,3.62 -2.592,7.445 -1.509,11.483m-85.483,-60.646c2.496,10.883 8.8,19.238 18.904,25.079c5.996,3.459 11.813,4.871 17.471,4.221c5.654,-0.646 9.783,-3.217 12.375,-7.708c1.55,-2.679 1.921,-5.525 1.117,-8.525c-0.805,-3.004 -2.58,-5.296 -5.321,-6.879c-1.559,-0.905 -3.634,-1.642 -6.217,-2.217c-4.392,-1.042 -7.179,-1.9 -8.367,-2.588c-3.116,-1.795 -5.1,-4.67 -5.941,-8.608c-0.85,-3.937 -0.279,-7.625 1.7,-11.058c1.766,-3.059 4.279,-5.104 7.537,-6.134c3.259,-1.029 6.292,-0.737 9.096,0.884c2.438,1.408 4.179,3.391 5.238,5.958c1.054,2.563 2.558,8.363 4.495,17.383c4.688,22.013 11.338,35.496 19.942,40.467c2.875,1.663 5.85,2.088 8.938,1.288c3.075,-0.796 5.466,-2.667 7.158,-5.6c2.412,-4.18 2.133,-8.375 -0.842,-12.588l-6.133,-8.408c-1.904,-2.596 -4.129,-11.788 -6.671,-27.563c-1.512,-9.775 -3.762,-17.296 -6.758,-22.558c-2.992,-5.267 -7.388,-9.571 -13.192,-12.925c-8.483,-4.9 -17.408,-5.867 -26.771,-2.913c-9.362,2.955 -16.708,9.05 -22.041,18.288c-6.305,10.921 -8.205,21.825 -5.717,32.704" style="fill:#f2f2f2;fill-rule:nonzero;"/><path d="M198.64,193.157c-4.142,0.542 -7.463,2.438 -9.967,5.692c-2.546,3.316 -3.55,7.046 -3.008,11.187c0.541,4.142 2.466,7.488 5.783,10.029c3.254,2.509 6.954,3.488 11.096,2.942c4.141,-0.537 7.487,-2.467 10.033,-5.779c2.504,-3.254 3.483,-6.958 2.942,-11.1c-0.542,-4.142 -2.442,-7.463 -5.696,-9.967c-3.317,-2.55 -7.038,-3.55 -11.183,-3.004m111.475,-43.4c2.283,-2.971 3.133,-6.321 2.545,-10.046c-0.595,-3.725 -2.458,-6.791 -5.6,-9.208c-5.995,-4.617 -12.833,-4.054 -20.508,1.675l-61.254,46.158c-2.383,1.804 -4.125,3.421 -5.225,4.846c-1.754,2.288 -2.454,4.817 -2.088,7.6c0.359,2.779 1.659,5.025 3.884,6.738c4.454,3.42 11.621,2.025 21.496,-4.2l57.829,-36.384c4.412,-2.783 7.383,-5.183 8.921,-7.179" style="fill:#f2f2f2;fill-rule:nonzero;"/></svg>