<?xml version="1.0" encoding="UTF-8" standalone="no"?><!DOCTYPE svg PUBLIC "-//W3C//DTD SVG 1.1//EN" "http://www.w3.org/Graphics/SVG/1.1/DTD/svg11.dtd"><svg width="100%" height="100%" viewBox="0 0 388 396" version="1.1" xmlns="http://www.w3.org/2000/svg" xmlns:xlink="http://www.w3.org/1999/xlink" xml:space="preserve" xmlns:serif="http://www.serif.com/" style="fill-rule:evenodd;clip-rule:evenodd;stroke-linejoin:round;stroke-miterlimit:2;"><path d="M58.095,192.667l-31.384,-0c-14.754,-0 -26.708,-11.959 -26.708,-26.709l-0,-32.571c-0,-14.754 11.954,-26.708 26.708,-26.708l31.384,0c14.75,0 26.708,11.954 26.708,26.708l-0,32.571c-0,14.75 -11.958,26.709 -26.708,26.709" style="fill:#09919c;fill-rule:nonzero;"/><path d="M360.992,85.988l-334.284,-0c-14.75,-0 -26.708,-11.959 -26.708,-26.709l0,-32.571c0,-14.754 11.958,-26.708 26.708,-26.708l334.284,0c14.754,0 26.708,11.954 26.708,26.708l0,32.571c0,14.75 -11.954,26.709 -26.708,26.709" style="fill:#f2f2f2;fill-rule:nonzero;"/><path d="M158.53,191.861l-31.383,-0c-14.75,-0 -26.709,-11.959 -26.709,-26.709l0,-32.575c0,-14.75 11.959,-26.704 26.709,-26.704l31.383,0c14.75,0 26.708,11.954 26.708,26.704l0,32.575c0,14.75 -11.958,26.709 -26.708,26.709" style="fill:#05616c;fill-rule:nonzero;"/><path d="M258.965,191.861l-31.383,-0c-14.75,-0 -26.708,-11.959 -26.708,-26.709l-0,-32.575c-0,-14.75 11.958,-26.704 26.708,-26.704l31.383,0c14.755,0 26.709,11.954 26.709,26.704l-0,32.575c-0,14.75 -11.954,26.709 -26.709,26.709" style="fill:#0b5c3e;fill-rule:nonzero;"/><path d="M58.095,293.702l-31.384,0c-14.754,0 -26.708,-11.958 -26.708,-26.708l-0,-32.571c-0,-14.75 11.954,-26.708 26.708,-26.708l31.384,-0c14.75,-0 26.708,11.958 26.708,26.708l-0,32.571c-0,14.75 -11.958,26.708 -26.708,26.708" style="fill:#4a7f3c;fill-rule:nonzero;"/><path d="M158.53,293.702l-31.383,0c-14.75,0 -26.709,-11.958 -26.709,-26.708l0,-32.571c0,-14.75 11.959,-26.708 26.709,-26.708l31.383,-0c14.75,-0 26.708,11.958 26.708,26.708l0,32.571c0,14.75 -11.958,26.708 -26.708,26.708" style="fill:#7a7720;fill-rule:nonzero;"/><path d="M360.992,191.861l-31.384,-0c-14.75,-0 -26.708,-11.959 -26.708,-26.709l0,-32.575c0,-14.75 11.958,-26.704 26.708,-26.704l31.384,0c14.754,0 26.708,11.954 26.708,26.704l0,32.575c0,14.75 -11.954,26.709 -26.708,26.709" style="fill:#0a5a2a;fill-rule:nonzero;"/><path d="M360.992,293.702l-31.384,0c-14.75,0 -26.708,-11.958 -26.708,-26.708l0,-32.571c0,-14.75 11.958,-26.708 26.708,-26.708l31.384,-0c14.754,-0 26.708,11.958 26.708,26.708l0,32.571c0,14.75 -11.954,26.708 -26.708,26.708" style="fill:#ebb65e;fill-rule:nonzero;"/><path d="M58.095,394.74l-31.384,-0c-14.754,-0 -26.708,-11.959 -26.708,-26.709l-0,-32.571c-0,-14.754 11.954,-26.708 26.708,-26.708l31.384,0c14.75,0 26.708,11.954 26.708,26.708l-0,32.571c-0,14.75 -11.958,26.709 -26.708,26.709" style="fill:#dc962d;fill-rule:nonzero;"/><path d="M258.965,395.545l-31.383,0c-14.75,0 -26.708,-11.958 -26.708,-26.708l-0,-32.571c-0,-14.75 11.958,-26.708 26.708,-26.708l31.383,-0c14.755,-0 26.709,11.958 26.709,26.708l-0,32.571c-0,14.75 -11.954,26.708 -26.709,26.708" style="fill:#a03b16;fill-rule:nonzero;"/><path d="M360.992,395.545l-31.384,0c-14.75,0 -26.708,-11.958 -26.708,-26.708l0,-32.571c0,-14.75 11.958,-26.708 26.708,-26.708l31.384,-0c14.754,-0 26.708,11.958 26.708,26.708l0,32.571c0,14.75 -11.954,26.708 -26.708,26.708" style="fill:#70160c;fill-rule:nonzero;"/><path d="M158.53,394.74l-31.383,-0c-14.75,-0 -26.709,-11.959 -26.709,-26.709l0,-32.571c0,-14.754 11.959,-26.708 26.709,-26.708l31.383,0c14.75,0 26.708,11.954 26.708,26.708l0,32.571c0,14.75 -11.958,26.709 -26.708,26.709" style="fill:#c16915;fill-rule:nonzero;"/><path d="M258.965,293.702l-31.383,0c-14.75,0 -26.708,-11.958 -26.708,-26.708l-0,-32.571c-0,-14.75 11.958,-26.708 26.708,-26.708l31.383,-0c14.755,-0 26.709,11.958 26.709,26.708l-0,32.571c-0,14.75 -11.954,26.708 -26.709,26.708" style="fill:#a5a034;fill-rule:nonzero;"/></svg>